<?xml version="1.0" standalone="no"?>
<!DOCTYPE svg PUBLIC "-//W3C//DTD SVG 20010904//EN"
 "http://www.w3.org/TR/2001/REC-SVG-20010904/DTD/svg10.dtd">
<svg version="1.0" xmlns="http://www.w3.org/2000/svg"
 width="688.000000pt" height="688.000000pt" viewBox="0 0 688.000000 688.000000"
 preserveAspectRatio="xMidYMid meet">
<metadata>
Created by potrace 1.11, written by Peter Selinger 2001-2013
</metadata>
<g transform="translate(0.000000,688.000000) scale(0.100000,-0.100000)"
fill="#000000" stroke="none">
<path d="M1860 6616 l-525 -263 -3 -795 -2 -795 -530 -264 -530 -264 0 -795 0
-795 519 -259 c286 -143 523 -257 528 -255 4 2 10 -358 13 -800 l5 -805 495
-247 c272 -136 509 -254 527 -263 l32 -15 522 261 c288 144 528 261 534 261 6
0 245 -117 531 -260 484 -242 522 -259 549 -249 40 15 1018 505 1028 515 5 5
9 364 9 798 l0 790 54 27 c29 15 55 26 56 24 2 -2 17 6 33 17 17 11 229 119
473 240 l442 220 -2 795 -3 795 -527 264 -526 265 0 789 c0 434 -4 793 -9 797
-4 5 -242 126 -529 269 l-521 261 -529 -265 -529 -264 -528 264 c-291 146
-529 265 -530 265 -1 0 -238 -119 -527 -264z"/>
</g>
</svg>
